<?xml version="1.0" encoding="utf-8"?>
<!-- Generator: Adobe Illustrator 24.0.0, SVG Export Plug-In . SVG Version: 6.00 Build 0)  -->
<svg version="1.1" id="图层_1" xmlns="http://www.w3.org/2000/svg" xmlns:xlink="http://www.w3.org/1999/xlink" x="0px" y="0px"
	 viewBox="0 0 226.77 226.77" style="enable-background:new 0 0 226.77 226.77;" xml:space="preserve">
<style type="text/css">
	.st0{fill:none;stroke:#000000;stroke-width:5;stroke-miterlimit:10;}
	.st1{fill:#FFFFFF;}
	.st2{font-family:'Magnolia-Script';}
	.st3{font-size:107.7915px;}
	.st4{fill:none;stroke:#000000;stroke-width:2;stroke-miterlimit:10;}
	.st5{fill:none;stroke:#000000;stroke-miterlimit:10;}
	.st6{stroke:#211C1D;stroke-linejoin:round;stroke-miterlimit:10;}
	.st7{stroke:#211C1D;stroke-width:2;stroke-miterlimit:10;}
	.st8{stroke:#211C1D;stroke-width:2;stroke-linejoin:round;stroke-miterlimit:10;}
</style>
<text transform="matrix(1 0 0 1 -432.1121 48.0409)" class="st2" style="font-size:73.5539px;">S</text>
<text transform="matrix(-0.9783 -0.2072 -0.2072 0.9783 -332.5199 93.6501)" class="st2" style="font-size:73.5539px;">T</text>
<circle class="st0" cx="-378.01" cy="31.82" r="38.82"/>
<g>
	<path d="M-351.92,31.38c0,13.8-11.64,25.11-25.99,25.11c-14.36,0-25.99-11.31-25.99-25.11s11.64-21.09,25.99-21.09
		C-363.56,10.3-351.92,17.58-351.92,31.38z"/>
	<circle cx="-397.01" cy="16" r="7.75"/>
	<circle cx="-359.95" cy="16" r="7.75"/>
	<circle class="st1" cx="-386.7" cy="31.29" r="3.03"/>
	<circle class="st1" cx="-369.12" cy="31.29" r="3.03"/>
	<path class="st1" d="M-370.17,39.77c-1.94,4.99-0.34,13.63-7.75,13.46c-7.24-0.16-5.59-8.95-7.75-13.46
		c-1.93-4.04-1.05-9.84,7.75-9.84C-369.12,29.94-368.54,35.58-370.17,39.77z"/>
	<path d="M-382.43,44.05c0-4.35,1.43-6.24,4.52-6.24s4.52,1.89,4.52,6.24s-1.22,8.21-4.52,8.21S-382.43,48.39-382.43,44.05z"/>
	<path class="st1" d="M-381.47,43.21c-0.74,0-0.74-2.09-0.74-2.43v-2.13c0-0.35,0.26-0.63,0.57-0.63h0.34
		c0.31,0,0.57,0.28,0.57,0.63v2.13C-380.73,41.12-380.73,43.21-381.47,43.21z"/>
	<path class="st1" d="M-374.13,43.21c-0.74,0-0.74-2.09-0.74-2.43v-2.13c0-0.35,0.26-0.63,0.57-0.63h0.34
		c0.31,0,0.57,0.28,0.57,0.63v2.13C-373.39,41.12-373.39,43.21-374.13,43.21z"/>
	<path class="st1" d="M-379.82,40.75h-0.34c-0.31,0-0.57-0.26-0.57-0.57v-1.49c0-0.31,0.26-0.57,0.57-0.57h0.34
		c0.31,0,0.57,0.26,0.57,0.57v1.49C-379.25,40.49-379.51,40.75-379.82,40.75z"/>
	<path class="st1" d="M-378.34,40.75h-0.34c-0.31,0-0.57-0.26-0.57-0.57v-1.49c0-0.31,0.26-0.57,0.57-0.57h0.34
		c0.31,0,0.57,0.26,0.57,0.57v1.49C-377.78,40.49-378.03,40.75-378.34,40.75z"/>
	<path class="st1" d="M-376.92,40.75h-0.34c-0.31,0-0.57-0.26-0.57-0.57v-1.49c0-0.31,0.26-0.57,0.57-0.57h0.34
		c0.31,0,0.57,0.26,0.57,0.57v1.49C-376.35,40.49-376.6,40.75-376.92,40.75z"/>
	<path class="st1" d="M-375.44,40.75h-0.34c-0.31,0-0.57-0.26-0.57-0.57v-1.49c0-0.31,0.26-0.57,0.57-0.57h0.34
		c0.31,0,0.57,0.26,0.57,0.57v1.49C-374.87,40.49-375.13,40.75-375.44,40.75z"/>
	<path d="M-373.95,34.71c0,1.7-1.77,4.44-3.96,4.44c-2.19,0-3.96-2.74-3.96-4.44s1.77-1.73,3.96-1.73
		C-375.73,32.98-373.95,33-373.95,34.71z"/>
</g>
<g>
	<text transform="matrix(-0.9558 -0.294 -0.294 0.9558 290.7524 322.6615)" class="st2 st3">T</text>
</g>
<g>
	<path d="M328.05,159.38c0,19.49-16.43,35.45-36.7,35.45s-36.7-15.97-36.7-35.45s16.43-29.77,36.7-29.77
		S328.05,139.89,328.05,159.38z"/>
	<circle cx="264.39" cy="137.66" r="10.94"/>
	<circle cx="316.71" cy="137.66" r="10.94"/>
	<circle class="st1" cx="278.94" cy="159.25" r="4.28"/>
	<circle class="st1" cx="303.76" cy="159.25" r="4.28"/>
	<path class="st1" d="M302.29,171.22c-2.74,7.05-0.49,19.24-10.94,19.01c-10.23-0.23-7.89-12.64-10.94-19.01
		c-2.73-5.71-1.48-13.89,10.94-13.89S304.58,165.31,302.29,171.22z"/>
	<path d="M284.96,177.25c0-6.14,2.02-8.8,6.39-8.8s6.39,2.67,6.39,8.8s-1.72,11.59-6.39,11.59S284.96,183.39,284.96,177.25z"/>
	<path class="st1" d="M286.33,176.07c-1.04,0-1.04-2.95-1.04-3.44v-3.01c0-0.49,0.36-0.89,0.8-0.89h0.48c0.44,0,0.8,0.4,0.8,0.89
		v3.01C287.37,173.12,287.37,176.07,286.33,176.07z"/>
	<path class="st1" d="M296.69,176.07c-1.04,0-1.04-2.95-1.04-3.44v-3.01c0-0.49,0.36-0.89,0.8-0.89h0.48c0.44,0,0.8,0.4,0.8,0.89
		v3.01C297.73,173.12,297.73,176.07,296.69,176.07z"/>
	<path class="st1" d="M288.89,172.59h-0.95c-0.31,0-0.57-0.26-0.57-0.57v-2.57c0-0.31,0.26-0.57,0.57-0.57h0.95
		c0.31,0,0.57,0.26,0.57,0.57v2.57C289.46,172.34,289.2,172.59,288.89,172.59z"/>
	<path class="st1" d="M290.98,172.59h-0.95c-0.31,0-0.57-0.26-0.57-0.57v-2.57c0-0.31,0.26-0.57,0.57-0.57h0.95
		c0.31,0,0.57,0.26,0.57,0.57v2.57C291.54,172.34,291.29,172.59,290.98,172.59z"/>
	<path class="st1" d="M292.99,172.59h-0.95c-0.31,0-0.57-0.26-0.57-0.57v-2.57c0-0.31,0.26-0.57,0.57-0.57h0.95
		c0.31,0,0.57,0.26,0.57,0.57v2.57C293.56,172.34,293.3,172.59,292.99,172.59z"/>
	<path class="st1" d="M295.08,172.59h-0.95c-0.31,0-0.57-0.26-0.57-0.57v-2.57c0-0.31,0.26-0.57,0.57-0.57h0.95
		c0.31,0,0.57,0.26,0.57,0.57v2.57C295.65,172.34,295.39,172.59,295.08,172.59z"/>
	<path d="M296.94,164.06c0,2.4-2.5,6.27-5.59,6.27s-5.59-3.87-5.59-6.27c0-2.4,2.5-2.44,5.59-2.44S296.94,161.66,296.94,164.06z"/>
</g>
<g>
	<path d="M297.26,401.72c-3.61,23.93-26.75,40.5-51.64,36.75s-42.12-26.4-38.51-50.34s25.69-33.52,50.59-29.77
		C282.59,362.11,300.87,377.78,297.26,401.72z"/>
	<circle cx="223.09" cy="363.26" r="13.58"/>
	<circle cx="287.35" cy="372.94" r="13.58"/>
	<circle class="st1" cx="236.96" cy="392.47" r="5.32"/>
	<circle class="st1" cx="267.45" cy="397.06" r="5.32"/>
	<path class="st1" d="M263.42,411.5c-4.67,8.15-4.16,23.54-16.95,21.32c-12.52-2.18-7.35-16.98-9.91-25.37
		c-2.29-7.51,0.76-17.33,16-15.03C267.8,394.72,267.34,404.66,263.42,411.5z"/>
	<path d="M241.03,415.7c1.14-7.54,4.12-10.44,9.47-9.63c5.36,0.81,7.35,4.46,6.21,12c-1.14,7.54-4.26,13.92-9.99,13.06
		C241,430.26,239.89,423.24,241.03,415.7z"/>
	<path class="st1" d="M242.92,414.49c-1.28-0.19-0.74-3.81-0.65-4.41l0.56-3.7c0.09-0.6,0.61-1.03,1.15-0.95l0.6,0.09
		c0.54,0.08,0.91,0.64,0.82,1.25l-0.56,3.7C244.75,411.07,244.2,414.69,242.92,414.49z"/>
	<path class="st1" d="M255.65,416.41c-1.28-0.19-0.74-3.81-0.65-4.41l0.56-3.7c0.09-0.6,0.61-1.03,1.15-0.95l0.6,0.09
		c0.54,0.08,0.91,0.64,0.82,1.25l-0.56,3.7C257.48,412.99,256.93,416.6,255.65,416.41z"/>
	<path class="st1" d="M246.85,410.72l-1.44-0.22c-0.31-0.05-0.52-0.34-0.48-0.65l0.52-3.42c0.05-0.31,0.34-0.52,0.65-0.48l1.44,0.22
		c0.31,0.05,0.52,0.34,0.48,0.65l-0.52,3.42C247.45,410.56,247.16,410.77,246.85,410.72z"/>
	<path class="st1" d="M249.41,411.11l-1.44-0.22c-0.31-0.05-0.52-0.34-0.48-0.65l0.52-3.42c0.05-0.31,0.34-0.52,0.65-0.48l1.44,0.22
		c0.31,0.05,0.52,0.34,0.48,0.65l-0.52,3.42C250.01,410.94,249.72,411.16,249.41,411.11z"/>
	<path class="st1" d="M251.88,411.48l-1.44-0.22c-0.31-0.05-0.52-0.34-0.48-0.65l0.52-3.42c0.05-0.31,0.34-0.52,0.65-0.48l1.44,0.22
		c0.31,0.05,0.52,0.34,0.48,0.65l-0.52,3.42C252.48,411.31,252.19,411.53,251.88,411.48z"/>
	<path class="st1" d="M254.45,411.87l-1.44-0.22c-0.31-0.05-0.52-0.34-0.48-0.65l0.52-3.42c0.05-0.31,0.34-0.52,0.65-0.48l1.44,0.22
		c0.31,0.05,0.52,0.34,0.48,0.65l-0.52,3.42C255.05,411.7,254.76,411.92,254.45,411.87z"/>
	<path d="M258.18,401.72c-0.45,2.95-4.24,7.24-8.03,6.67c-3.79-0.57-6.15-5.78-5.71-8.74c0.45-2.95,3.53-2.53,7.32-1.96
		C255.56,398.26,258.63,398.76,258.18,401.72z"/>
</g>
<g>
	<path class="st4" d="M-459.25,394.6c2.25-1.64,3.89-4.13,4.38-7.1c1-6.02-3.06-11.71-9.07-12.71c-3.97-0.66-7.79,0.89-10.22,3.74
		c-4.54-2.42-9.8-4.14-15.51-5.09c-6.23-1.04-12.27-1.04-17.72,0.02c-1.26-3.74-4.48-6.68-8.65-7.38c-6.02-1-11.71,3.06-12.71,9.07
		c-0.58,3.49,0.54,6.86,2.76,9.27c-2.55,3.42-4.35,7.6-5.18,12.55c-3.24,19.41,10.47,38.04,30.65,41.41
		c20.19,3.37,39.2-9.79,42.45-29.2C-457.17,403.81-457.65,398.92-459.25,394.6z M-482.95,409.29c-0.29-0.05-0.58-0.13-0.84-0.23
		c0.34,2.58-0.54,5.34-1.91,7.65c-3.9,6.57-3.68,19.08-14.05,17.11c-10.15-1.93-5.76-13.9-7.73-20.74c-0.75-2.6-0.71-5.52,0.52-7.86
		c-0.23,0-0.47-0.01-0.71-0.05c-2.35-0.39-3.94-2.62-3.55-4.97c0.39-2.35,2.62-3.94,4.97-3.55c2.32,0.39,3.88,2.55,3.56,4.86
		c2.07-0.79,4.83-1.04,8.41-0.44c3.63,0.61,6.14,1.73,7.81,3.16c0.44-2.3,2.63-3.84,4.95-3.45c2.35,0.39,3.94,2.62,3.55,4.97
		C-478.37,408.09-480.59,409.68-482.95,409.29z"/>
	<g>
		<path d="M-490.95,419.34c-0.26,0.73-0.63,1.35-1.12,1.26c-1.04-0.17-0.55-3.11-0.47-3.6l0.17-1.03c-0.09,0.55-0.68,1.26-1.23,1.17
			l-0.08-0.01c-0.55-0.09-0.86-0.95-0.77-1.5c-0.09,0.55-0.68,1.26-1.23,1.17l-0.08-0.01c-0.49-0.08-0.75-0.84-0.76-1.32
			c-0.16,0.45-0.68,1.08-1.16,1l-0.08-0.01c-0.55-0.09-0.86-0.95-0.77-1.5c-0.09,0.55-0.68,1.26-1.23,1.17l-0.08-0.01
			c-0.55-0.09-0.86-0.95-0.77-1.5l-0.17,1.03c-0.08,0.49-0.57,3.42-1.61,3.25c-0.75-0.12-0.7-1.67-0.59-2.71
			c-0.4,1.02-0.72,2.24-0.96,3.67c-1.02,6.11-0.21,11.83,4.43,12.61c4.64,0.78,7.27-4.37,8.29-10.48
			C-491.07,421.01-490.99,420.14-490.95,419.34z"/>
	</g>
	<path d="M-489.83,408.69c-0.4,2.39-3.54,5.83-6.61,5.31c-3.08-0.51-4.93-4.78-4.53-7.18c0.4-2.39,2.9-2.01,5.97-1.5
		C-491.92,405.85-489.43,406.3-489.83,408.69z"/>
</g>
<text transform="matrix(0.9876 0.1572 -0.1572 0.9876 -459.2681 345.2931)" class="st2" style="font-size:136.5589px;">T</text>
<text transform="matrix(1 0 0 1 -444.3232 343.2226)" class="st2" style="font-size:141.1113px;">S</text>
<g>
	<text transform="matrix(-0.9016 -0.4325 -0.4325 0.9016 -265.3788 314.6072)" class="st2 st3">T</text>
</g>
<g>
	<path class="st5" d="M-338.73,221.21c2.52-1.12,4.63-3.19,5.73-5.95c2.23-5.61-0.51-11.97-6.13-14.2
		c-3.7-1.47-7.73-0.77-10.68,1.49c-3.89-3.29-8.63-6.05-13.95-8.17c-5.82-2.31-11.66-3.57-17.16-3.68
		c-0.44-3.88-2.94-7.41-6.83-8.95c-5.61-2.23-11.97,0.51-14.2,6.13c-1.29,3.25-0.91,6.75,0.73,9.56c-3.18,2.78-5.8,6.45-7.64,11.07
		c-7.19,18.11,2.19,39.02,21.02,46.5c18.84,7.48,40-1.29,47.2-19.4C-338.65,230.56-338.1,225.73-338.73,221.21z M-364.75,230.48
		c-0.27-0.11-0.53-0.24-0.77-0.4c-0.21,2.57-1.64,5.06-3.45,7.01c-5.15,5.54-7.55,17.7-17.18,13.63c-9.42-3.99-2.67-14.66-3.15-21.7
		c-0.18-2.67,0.47-5.49,2.15-7.5c-0.23-0.05-0.45-0.1-0.68-0.19c-2.2-0.87-3.27-3.36-2.4-5.56s3.36-3.27,5.56-2.4
		c2.16,0.86,3.23,3.28,2.43,5.45c2.17-0.33,4.89,0.01,8.24,1.33c3.39,1.35,5.59,2.96,6.9,4.69c0.91-2.13,3.35-3.17,5.51-2.31
		c2.2,0.87,3.27,3.36,2.4,5.56C-360.07,230.28-362.56,231.35-364.75,230.48z"/>
	<g>
		<path d="M-380.4,231.12c0.2-0.51,0.79-0.77,1.3-0.56l0.08,0.03c0.45,0.18,0.68,0.66,0.59,1.12c0.25-0.4,0.75-0.59,1.2-0.41
			l0.08,0.03c0.51,0.2,0.77,0.79,0.56,1.3c0.16-0.39,0.54-0.63,0.94-0.63c-0.62-0.62-1.44-1.13-2.46-1.53
			c-0.97-0.39-1.87-0.57-2.72-0.57C-380.42,230.15-380.22,230.66-380.4,231.12z"/>
		<path d="M-382.25,230.13l-0.09,0.22c0.04-0.1,0.1-0.17,0.16-0.25C-382.2,230.11-382.23,230.12-382.25,230.13z"/>
		<path d="M-374.6,238.53c-0.4,0.65-0.89,1.17-1.35,0.99c-0.97-0.39,0.12-3.12,0.3-3.58l0.38-0.96c-0.2,0.51-0.79,0.77-1.3,0.56
			l-0.08-0.03c-0.51-0.2-0.77-0.79-0.56-1.3c-0.2,0.51-0.79,0.77-1.3,0.56l-0.08-0.03c-0.45-0.18-0.68-0.66-0.59-1.12
			c-0.25,0.4-0.75,0.59-1.2,0.41l-0.08-0.03c-0.51-0.2-0.77-0.79-0.56-1.3c-0.2,0.51-0.79,0.77-1.3,0.56l-0.08-0.03
			c-0.51-0.2-0.77-0.79-0.56-1.3l-0.38,0.96c-0.18,0.46-1.27,3.19-2.24,2.81c-0.7-0.28-0.33-1.76,0-2.75
			c-0.6,0.91-1.17,2.02-1.7,3.35c-2.27,5.71-2.68,11.41,1.66,13.13c4.33,1.72,7.95-2.71,10.21-8.42
			C-375.07,240.13-374.8,239.3-374.6,238.53z"/>
	</g>
	<path d="M-371.29,228.46c-0.89,2.24-4.64,4.9-7.51,3.76c-2.87-1.14-3.77-5.66-2.88-7.89c0.89-2.24,3.23-1.34,6.1-0.2
		C-372.72,225.27-370.4,226.23-371.29,228.46z"/>
</g>
<path d="M-338.73,221.21c2.52-1.12,4.63-3.19,5.73-5.95c2.23-5.61-0.51-11.97-6.13-14.2c-3.7-1.47-7.73-0.77-10.68,1.49
	c-3.89-3.29-8.63-6.05-13.95-8.17c-5.82-2.31-11.66-3.57-17.16-3.68c-0.44-3.88-2.94-7.41-6.83-8.95
	c-5.61-2.23-11.97,0.51-14.2,6.13c-1.29,3.25-0.91,6.75,0.73,9.56c-3.18,2.78-5.8,6.45-7.64,11.07
	c-7.19,18.11,2.19,39.02,21.02,46.5c18.84,7.48,40-1.29,47.2-19.4C-338.65,230.56-338.1,225.73-338.73,221.21z"/>
<g>
	<path d="M101.71,109.46c1.76,0.27,3.38,0.64,5.62,1.1c0,0-0.16,2.16-0.77,5.61l-0.17,0.91c0.99,0.94,2.11,1.82,3.37,2.62
		l13.77,8.71l2.32-12.64c0.54,0.17,2.73,0.58,3.09,0.39c0.37-0.19,0.79-0.4,0.79-0.4c0.22-0.12,5.91-2.98,6.48-11.35
		c-13.62-0.88-24.24-2.51-34.03-3.08c-0.5,1.42-0.79,2.95-0.85,4.57C101.28,107.09,101.41,108.29,101.71,109.46z"/>
	<path d="M83.39,131.92c0-0.2-0.01-0.38-0.02-0.53c-0.18-0.2-0.36-0.41-0.53-0.61c-0.4,0.12-1.09,0.27-2.04,0.26
		c-3.6-0.03-5.73-2.64-5.7-6.67c0.02-2.23,0.58-4.38,1.61-6.33c-0.48-2.44-0.68-5-0.59-7.71c0.09-2.41,0.46-4.77,1.07-7.06
		c-13.12,3.71-19.72,11.87-19.81,22.09c-0.08,8.63,5.63,14.44,14.98,14.53C79.72,139.95,83.36,135.38,83.39,131.92z"/>
	<path d="M111.51,185.03l6.74-27.9c-1.75-2.38-4.57-4.86-8.99-7.59l-7.94-4.92l-8.98,39.89l0,0.02c-1.97,11.06,0,24.47,10.65,24.56
		c5.9,0.05,8.22-1.36,8.22-1.36s-1.55-12.39,0.27-22.45L111.51,185.03z"/>
	<path d="M168.2,105.4c0,0-3.2,1.07-8.46,1.21c-0.02,0.74-0.07,1.49-0.16,2.24c-0.7,5.82-2.9,10.39-6.22,13.39
		c-0.01,0.01,0,0.03,0.01,0.03c10.6,0.18,15.32-5.09,15.96-11.99C169.55,107.98,168.85,106.18,168.2,105.4z"/>
	<g>
		<g>
			<path class="st6" d="M126.14,97.7c-2.67,0-5.35-0.25-8.03-0.77c-10.68-2.06-19.96-8.03-26.13-16.83
				c-6.16-8.79-8.46-19.31-6.47-29.63c0.96-4.99,2.85-9.41,5.6-13.13c-2.24-2.92-3.12-6.61-2.42-10.24
				c1.34-6.96,8.09-11.53,15.06-10.19c4.39,0.84,7.98,3.88,9.57,8.02c5.78-0.87,12.02-0.67,18.55,0.59
				c5.96,1.15,11.39,3.04,16.14,5.61c3.03-2.99,7.25-4.29,11.46-3.48c6.96,1.34,11.54,8.1,10.19,15.06
				c-0.59,3.07-2.25,5.78-4.7,7.69c1.51,4.83,1.73,10.05,0.68,15.52c-1.99,10.32-8.03,19.23-17.02,25.1
				C141.89,95.42,134.11,97.7,126.14,97.7z M101.32,18.68c-5.1,0-9.66,3.62-10.66,8.81c-0.63,3.29,0.27,6.64,2.49,9.19l0.54,0.62
				l-0.51,0.65c-2.83,3.6-4.74,7.94-5.7,12.91c-1.88,9.78,0.3,19.76,6.15,28.1c5.86,8.37,14.7,14.05,24.87,16.01
				c10.17,1.96,20.48-0.04,29.04-5.62c8.53-5.57,14.26-14.02,16.15-23.8c1.04-5.39,0.76-10.51-0.84-15.2l-0.24-0.71l0.62-0.43
				c2.35-1.63,3.94-4.07,4.48-6.87c1.13-5.88-2.73-11.59-8.61-12.72c-3.77-0.73-7.56,0.56-10.14,3.43l-0.54,0.6l-0.7-0.39
				c-4.72-2.66-10.18-4.61-16.22-5.77c-6.61-1.27-12.89-1.42-18.67-0.45l-0.86,0.15l-0.26-0.84c-1.19-3.85-4.38-6.71-8.32-7.47
				C102.69,18.74,102,18.68,101.32,18.68z M121.75,92.34c-0.83,0-1.73-0.1-2.71-0.31c-8.35-1.8-8.2-9.17-8.06-15.68
				c0.06-2.78,0.11-5.41-0.44-7.53c-0.72-2.76-0.62-5.56,0.27-7.89c-2.76-0.81-4.51-3.6-3.96-6.48c0.28-1.48,1.13-2.76,2.38-3.6
				c1.25-0.84,2.75-1.15,4.23-0.87c2.51,0.48,4.3,2.53,4.54,4.96c2.32-0.53,5.07-0.49,8.19,0.11c3.15,0.61,5.71,1.59,7.65,2.94
				c1.12-2.17,3.54-3.4,6.06-2.92c3.05,0.59,5.06,3.55,4.47,6.61c-0.57,2.94-3.34,4.91-6.27,4.53c-0.07,2.37-0.92,4.94-2.45,7.39
				c-1.18,1.88-2.03,4.25-2.93,6.77C130.68,86.02,128.4,92.34,121.75,92.34z M112.38,51.87c-0.72,0-1.42,0.21-2.03,0.63
				c-0.81,0.55-1.35,1.37-1.53,2.33c-0.38,1.97,0.91,3.88,2.88,4.26c0.2,0.04,0.4,0.05,0.6,0.05l1.65,0.04l-0.8,1.44
				c-1.16,2.09-1.41,4.9-0.67,7.69c0.62,2.39,0.56,5.28,0.51,8.08c-0.13,6.29-0.25,12.22,6.48,13.68
				c7.08,1.53,9.07-3.99,11.37-10.39c0.9-2.5,1.83-5.1,3.12-7.16c1.6-2.56,2.35-5.23,2.11-7.52l-0.18-1.68l1.56,0.65
				c0.23,0.09,0.46,0.16,0.71,0.21l0,0c1.97,0.38,3.88-0.92,4.26-2.89c0.38-1.97-0.92-3.88-2.89-4.26c-1.95-0.38-3.81,0.85-4.24,2.8
				l-0.37,1.68l-1.28-1.15c-1.74-1.57-4.37-2.7-7.82-3.36c-3.41-0.66-6.27-0.59-8.52,0.21l-1.6,0.57l0.28-1.67
				c0.33-1.96-0.94-3.79-2.89-4.17C112.84,51.9,112.61,51.87,112.38,51.87z"/>
		</g>
		<g>
			<path d="M129.08,75.74c-0.3,0.77-0.71,1.43-1.24,1.33c-1.11-0.21-0.51-3.35-0.41-3.87l0.21-1.1c-0.11,0.59-0.77,1.34-1.35,1.22
				l-0.09-0.02c-0.59-0.11-0.9-1.05-0.78-1.63c-0.11,0.59-0.77,1.34-1.35,1.22l-0.09-0.02c-0.52-0.1-0.78-0.93-0.78-1.44
				c-0.19,0.48-0.76,1.14-1.28,1.04l-0.09-0.02c-0.59-0.11-0.9-1.05-0.78-1.63c-0.11,0.59-0.77,1.34-1.35,1.22l-0.09-0.02
				c-0.59-0.11-0.9-1.05-0.78-1.63l-0.21,1.1c-0.1,0.52-0.71,3.66-1.82,3.45c-0.8-0.15-0.71-1.81-0.56-2.93
				c-0.46,1.09-0.84,2.39-1.13,3.92c-1.26,6.54-0.55,12.7,4.42,13.66c4.97,0.96,7.92-4.5,9.18-11.03
				C128.9,77.53,129.02,76.6,129.08,75.74z"/>
		</g>
		<path d="M130.57,64.34c-0.49,2.56-3.95,6.16-7.24,5.53s-5.16-5.26-4.67-7.83c0.49-2.56,3.17-2.08,6.45-1.45
			C128.4,61.23,131.06,61.78,130.57,64.34z"/>
	</g>
	<g>
		<path class="st7" d="M141.64,124.42c-1.8,0-3.49-0.24-5.02-0.7c-1.54-0.47-2.74-1.69-3.2-3.25c-0.46-1.55-0.11-3.21,0.92-4.43
			c1.79-2.12,3.93-5.83,3.92-11.5c0-2.01,1.2-3.84,3.06-4.66l0,0c2.05-0.9,4.03-1.97,5.9-3.19c1.54-1.01,3.43-1.24,5.18-0.63
			c1.73,0.6,3.05,1.92,3.64,3.64c0.78,2.29,1.17,4.72,1.18,7.21c0.01,5.34-1.42,9.77-4.12,12.82c-2.72,3.07-6.67,4.69-11.43,4.7
			C141.65,124.42,141.65,124.42,141.64,124.42z M150.45,97.72c-0.75,0-1.49,0.22-2.13,0.64c-1.96,1.28-4.04,2.41-6.19,3.35l0,0
			c-1.13,0.5-1.86,1.61-1.86,2.83c0.01,6.27-2.39,10.42-4.4,12.79c-0.61,0.72-0.8,1.65-0.53,2.57c0.27,0.92,0.97,1.63,1.87,1.9
			c1.34,0.41,2.83,0.62,4.43,0.62c0.01,0,0.01,0,0.02,0c4.17,0,7.61-1.4,9.93-4.02c2.37-2.68,3.63-6.65,3.62-11.5
			c0-2.27-0.36-4.48-1.07-6.57c-0.38-1.12-1.25-1.99-2.39-2.39C151.32,97.8,150.88,97.72,150.45,97.72z"/>
	</g>
	<g>
		<path class="st8" d="M103.45,192.84c-20.51,0-34.85-10.23-34.86-24.9c-0.01-5.26,1.42-9.56,4.12-12.44
			c2.48-2.64,5.92-4.04,9.94-4.04c0.75,0.02,1.45,0.04,2.12,0.12c2.1,0.24,3.93,1.51,4.91,3.4c0.95,1.85,0.93,4.03-0.07,5.83
			c-1.38,2.5-2.08,5.15-2.08,7.86c0.01,8.77,6.3,14,16.83,14c0.01,0,0.02,0,0.03,0c6.14-0.01,11.4-1.76,15.21-5.07
			c3.54-3.07,5.48-7.26,5.48-11.8c-0.01-7.26-3.71-12.19-13.19-17.55l-15.92-9.05c-12.18-6.94-17.62-15.32-17.63-27.17
			c-0.01-7.24,2.52-13.99,7.31-19.54c1.21-1.4,2.88-2.24,4.72-2.37c1.8-0.12,3.54,0.45,4.89,1.63c1.11,0.96,2.28,1.88,3.48,2.72
			c1.88,1.31,2.6,3.73,1.76,5.89c-0.76,1.94-1.14,4.06-1.14,6.29c0.01,5.96,3.62,11.49,9.93,15.19l18.9,10.98
			c12.21,7.17,17.91,15.89,17.92,27.46c0.02,15.66-13.31,32.54-42.6,32.57C103.5,192.84,103.47,192.84,103.45,192.84z M82.68,153.46
			c-0.01,0-0.02,0-0.03,0c-3.46,0-6.39,1.18-8.49,3.41c-2.35,2.5-3.59,6.33-3.58,11.07c0.01,13.49,13.52,22.9,32.86,22.9
			c0.02,0,0.04,0,0.06,0c19.57-0.02,40.63-9.6,40.6-30.57c-0.01-10.79-5.39-18.96-16.93-25.74l-18.9-10.98
			c-6.94-4.06-10.92-10.22-10.92-16.91c0-2.48,0.43-4.84,1.28-7.02c0.5-1.29,0.08-2.74-1.04-3.52c-1.26-0.88-2.49-1.84-3.65-2.86
			c-0.95-0.83-2.17-1.23-3.44-1.14c-1.3,0.09-2.5,0.69-3.35,1.68c-4.47,5.18-6.83,11.48-6.82,18.23
			c0.01,11.04,5.14,18.89,16.62,25.43l15.92,9.05c10.08,5.71,14.2,11.29,14.21,19.29c0.01,5.12-2.18,9.85-6.17,13.31
			c-4.18,3.63-9.89,5.55-16.52,5.56c-0.01,0-0.02,0-0.03,0c-11.6,0-18.82-6.13-18.83-16c0-3.06,0.78-6.03,2.33-8.83
			c0.68-1.23,0.7-2.67,0.04-3.94c-0.67-1.29-1.92-2.16-3.36-2.33C83.97,153.49,83.34,153.46,82.68,153.46z"/>
	</g>
</g>
<g>
	<path d="M-218.62-114.24c1.76,0.27,3.38,0.64,5.62,1.1c0,0-0.16,2.16-0.77,5.61l-0.17,0.91c0.99,0.94,2.11,1.82,3.37,2.62
		l13.77,8.71l2.32-12.64c0.54,0.17,2.73,0.58,3.09,0.39s0.79-0.4,0.79-0.4c0.22-0.12,5.91-2.98,6.48-11.35
		c-13.62-0.88-24.24-2.51-34.03-3.08c-0.5,1.42-0.79,2.95-0.85,4.57C-219.05-116.61-218.91-115.41-218.62-114.24z"/>
	<path d="M-236.94-91.78c0-0.2-0.01-0.38-0.02-0.53c-0.18-0.2-0.36-0.41-0.53-0.61c-0.4,0.12-1.09,0.27-2.04,0.26
		c-3.6-0.03-5.73-2.64-5.7-6.67c0.02-2.23,0.58-4.38,1.61-6.33c-0.48-2.44-0.68-5-0.59-7.71c0.09-2.41,0.46-4.77,1.07-7.06
		c-13.12,3.71-19.72,11.87-19.81,22.09c-0.08,8.63,5.63,14.44,14.98,14.53C-240.61-83.75-236.97-88.32-236.94-91.78z"/>
	<path d="M-208.82-38.66l6.74-27.9c-1.75-2.38-4.57-4.86-8.99-7.59l-7.94-4.92L-228-39.19l0,0.02c-1.97,11.06,0,24.47,10.65,24.56
		c5.9,0.05,8.22-1.36,8.22-1.36s-1.55-12.39,0.27-22.45L-208.82-38.66z"/>
	<path d="M-152.13-118.3c0,0-3.2,1.07-8.46,1.21c-0.02,0.74-0.07,1.49-0.16,2.24c-0.7,5.82-2.9,10.39-6.22,13.39
		c-0.01,0.01,0,0.03,0.01,0.03c10.6,0.18,15.32-5.09,15.96-11.99C-150.78-115.72-151.48-117.52-152.13-118.3z"/>
	<g>
		<path class="st4" d="M-156.54-173.68c2.46-1.7,4.29-4.33,4.9-7.5c1.24-6.43-2.97-12.65-9.4-13.89c-4.24-0.82-8.39,0.75-11.08,3.75
			c-4.81-2.72-10.42-4.7-16.52-5.88c-6.67-1.28-13.14-1.45-19.03-0.45c-1.25-4.05-4.64-7.3-9.09-8.16
			c-6.43-1.24-12.65,2.97-13.89,9.4c-0.72,3.73,0.4,7.38,2.71,10.03c-2.83,3.61-4.87,8.04-5.9,13.34
			c-4,20.75,10.22,41.12,31.81,45.28s42.36-9.47,46.36-30.22C-154.56-163.73-154.95-168.99-156.54-173.68z M-182.38-158.53
			c-0.31-0.06-0.61-0.15-0.9-0.27c0.3,2.78-0.72,5.72-2.25,8.16c-4.36,6.95-4.47,20.39-15.55,17.99
			c-10.84-2.35-5.81-15.08-7.75-22.48c-0.73-2.81-0.61-5.94,0.77-8.43c-0.25-0.01-0.51-0.02-0.76-0.07
			c-2.52-0.49-4.16-2.92-3.68-5.43c0.49-2.52,2.92-4.16,5.43-3.68c2.48,0.48,4.1,2.84,3.69,5.32c2.25-0.8,5.22-0.98,9.04-0.25
			c3.88,0.75,6.55,2.02,8.3,3.6c0.53-2.45,2.92-4.05,5.4-3.57c2.52,0.49,4.16,2.92,3.68,5.43
			C-177.43-159.69-179.87-158.05-182.38-158.53z"/>
		<g>
			<path d="M-191.25-147.96c-0.3,0.77-0.71,1.43-1.24,1.33c-1.11-0.21-0.51-3.35-0.41-3.87l0.21-1.1c-0.11,0.59-0.77,1.34-1.35,1.22
				l-0.09-0.02c-0.59-0.11-0.9-1.05-0.78-1.63c-0.11,0.59-0.77,1.34-1.35,1.22l-0.09-0.02c-0.52-0.1-0.78-0.93-0.78-1.44
				c-0.19,0.48-0.76,1.14-1.28,1.04l-0.09-0.02c-0.59-0.11-0.9-1.05-0.78-1.63c-0.11,0.59-0.77,1.34-1.35,1.22l-0.09-0.02
				c-0.59-0.11-0.9-1.05-0.78-1.63l-0.21,1.1c-0.1,0.52-0.71,3.66-1.82,3.45c-0.8-0.15-0.71-1.81-0.56-2.93
				c-0.46,1.09-0.84,2.39-1.13,3.92c-1.26,6.54-0.55,12.7,4.42,13.66c4.97,0.96,7.92-4.5,9.18-11.03
				C-191.42-146.17-191.31-147.1-191.25-147.96z"/>
		</g>
		<path d="M-189.76-159.36c-0.49,2.56-3.95,6.16-7.24,5.53c-3.29-0.63-5.16-5.26-4.67-7.83c0.49-2.56,3.17-2.08,6.45-1.45
			C-191.92-162.47-189.26-161.92-189.76-159.36z"/>
	</g>
	<path class="st4" d="M-178.61-122.91c-1.49,0.65-2.46,2.12-2.46,3.74l0,0c0.01,5.87-2.16,9.79-4.16,12.14
		c-1.75,2.06-0.77,5.29,1.81,6.08c1.29,0.39,2.86,0.66,4.74,0.66c9.07-0.01,14.57-6.11,14.55-16.52c0-2.42-0.39-4.72-1.12-6.89
		c-1.02-3.01-4.66-4.22-7.32-2.49C-174.48-124.93-176.5-123.83-178.61-122.91z"/>
	<path class="st4" d="M-192.64-90.03l-18.9-10.98c-6.84-4.01-10.42-9.95-10.43-16.05c0-2.41,0.42-4.64,1.21-6.65
		c0.66-1.7,0.1-3.66-1.4-4.71c-1.24-0.87-2.43-1.8-3.57-2.79c-2.42-2.11-6.1-1.79-8.2,0.64c-4.67,5.41-7.07,12.03-7.07,18.89
		c0.01,10.71,4.63,19.18,17.13,26.3l15.92,9.05c9.97,5.64,13.69,10.99,13.7,18.42c0.01,9.67-8.31,17.85-21.69,17.87
		c-11.45,0.01-17.85-6.08-17.86-15c0-3.41,1.05-6.25,2.2-8.35c1.8-3.26-0.38-7.33-4.08-7.75c-0.62-0.07-1.29-0.11-2.01-0.11
		c-7.14,0.01-13.08,4.77-13.07,15.48c0.01,13.83,13.56,23.92,33.93,23.9c27.06-0.03,41.62-15.06,41.6-31.57
		C-175.22-73.84-179.99-82.6-192.64-90.03z"/>
</g>
<text transform="matrix(1 9.090000e-03 -9.090000e-03 1 -274.4389 260.1183)" class="st2" style="font-size:150.7482px;">T </text>
<text transform="matrix(1 9.090000e-03 -9.090000e-03 1 -309.7273 263.0811)" class="st5 st2" style="font-size:165.1299px;">S</text>
<path d="M-536.23,474.72c0.01-0.87-0.13-1.31-0.13-1.31s-0.87,0.43-2.47,0.41c-3.62-0.03-5.77-2.66-5.74-6.72
	c0.04-4.08,1.81-7.93,5.18-10.77c0.43-4.08,1.73-8.17,3.92-11.94c-17.87,2.57-26.84,11.74-26.94,23.71
	c-0.08,8.7,5.67,14.55,15.09,14.63C-539.92,482.8-536.26,478.2-536.23,474.72z"/>
<path d="M-516.38,452.32c1.29,0.24,2.61,0.53,4.26,0.87c0,0-0.16,2.17-0.78,5.65l-0.69,3.76c1.42,1.85,3.32,3.53,5.65,4.93
	l11.54,6.87l2.93-15.95c2.32,0.74,4.4,1.46,6.43,2.11c1.45-1.93,2.87-4.93,2.91-9.26c0.01-1.61-0.25-3.09-0.76-4.42
	c-11.34-0.74-19.45-1.91-27.52-2.62C-514.57,446.36-515.96,449.11-516.38,452.32z"/>
<path d="M-515.1,543.52c3.02,0,4.26-2.75,6.69-3.67l7.39-40.3c-1.6-1.39-3.62-2.81-6.2-4.31l-11.19-6.51l-9.08,49.37
	c2.48,2.03,6.59,3.31,11.11,3.35L-515.1,543.52z"/>
<path d="M-452.77,445.52c0,0-4,1.74-10.62,2.12c0.55,2,0.83,4.11,0.81,6.3c-0.03,3.71-0.77,6.94-2.08,9.62
	c9.52-1.14,13.39-6.61,13.45-13.24C-451.2,448-452.05,446.26-452.77,445.52z"/>
<path d="M-507.99,537.52c-2,0.19-4.08,0.3-6.26,0.3l-0.65,0c-4.39-0.04-8.51-0.55-12.28-1.49l-0.04,0.23
	c-1.75,6.97,5.66,15.9,10.73,15.9c3.71,0,8.27-1.37,8.27-1.37S-509.75,547.48-507.99,537.52z"/>
<g>
	<path class="st4" d="M-491.3,480.24l-17.88-10.64c-6.48-3.88-9.82-9.57-9.77-15.38c0.04-3.93,1.24-7.35,3.35-10.08
		c1.3-1.68,0.9-4.12-0.92-5.2c-1.35-0.8-2.66-1.66-3.92-2.6c-1.19-0.89-2.83-0.97-4.06-0.13c-8.2,5.61-12.54,14.05-12.62,22.93
		c-0.09,10.19,4.22,18.3,16.05,25.2l15.07,8.77c9.43,5.47,12.93,10.59,12.86,17.67c-0.08,9.2-8.08,16.91-20.82,16.8
		c-10.9-0.1-16.93-5.96-16.86-14.45c0.04-4.11,1.67-7.33,3.07-9.34c1.26-1.81,0.53-4.33-1.5-5.18c-1.26-0.53-2.93-0.92-5.11-0.94
		c-6.79-0.06-12.5,4.42-12.59,14.61c-0.12,13.16,12.67,22.91,32.07,23.08c25.76,0.23,39.77-13.94,39.91-29.65
		C-474.88,495.83-479.33,487.43-491.3,480.24z"/>
	<path class="st4" d="M-474.11,440.18c-1.91,0.99-3.91,1.84-5.98,2.54c-1.72,0.58-2.74,2.43-2.21,4.17
		c0.42,1.38,0.63,2.86,0.61,4.42c-0.05,5.69-2.23,9.42-4.18,11.64c-1.65,1.87-0.88,4.79,1.48,5.59c1.28,0.44,2.87,0.75,4.8,0.77
		c8.63,0.08,13.92-5.68,14.02-15.59c0.04-4.73-1.45-9.02-4.22-12.63C-470.81,439.77-472.64,439.42-474.11,440.18z"/>
</g>
<path d="M-88.23,98.14c2.67-1.85,4.65-4.7,5.32-8.15c1.35-6.99-3.23-13.74-10.21-15.09c-4.61-0.89-9.11,0.81-12.03,4.07
	c-5.23-2.95-11.31-5.11-17.94-6.39c-7.24-1.4-14.27-1.57-20.67-0.49c-1.36-4.4-5.03-7.92-9.87-8.86
	c-6.99-1.35-13.74,3.23-15.09,10.21c-0.78,4.05,0.44,8.01,2.95,10.9c-3.07,3.92-5.29,8.73-6.4,14.49
	c-4.34,22.54,11.1,44.66,34.54,49.18c23.44,4.52,46-10.28,50.34-32.82C-86.08,108.95-86.5,103.23-88.23,98.14z"/>
<g>
	<path class="st4" d="M-212.49,386.55c2.67-1.85,4.65-4.7,5.32-8.15c1.35-6.99-3.23-13.74-10.21-15.09
		c-4.61-0.89-9.11,0.81-12.03,4.07c-5.23-2.95-11.31-5.11-17.94-6.39c-7.24-1.4-14.27-1.57-20.67-0.49
		c-1.36-4.4-5.03-7.92-9.87-8.86c-6.99-1.35-13.74,3.23-15.09,10.21c-0.78,4.05,0.44,8.01,2.95,10.9c-3.07,3.92-5.29,8.73-6.4,14.49
		c-4.34,22.54,11.1,44.66,34.54,49.18c23.44,4.52,46-10.28,50.34-32.82C-210.34,397.36-210.76,391.64-212.49,386.55z M-240.56,403
		c-0.34-0.07-0.67-0.16-0.98-0.29c0.33,3.02-0.78,6.21-2.45,8.86c-4.74,7.54-4.85,22.14-16.88,19.54
		c-11.78-2.55-6.31-16.37-8.41-24.41c-0.8-3.05-0.67-6.45,0.83-9.15c-0.27-0.01-0.55-0.02-0.83-0.07c-2.73-0.53-4.52-3.17-3.99-5.9
		c0.53-2.73,3.17-4.52,5.9-3.99c2.69,0.52,4.45,3.09,4.01,5.77c2.44-0.86,5.66-1.07,9.82-0.27c4.21,0.81,7.11,2.2,9.01,3.91
		c0.58-2.67,3.17-4.4,5.87-3.88c2.73,0.53,4.52,3.17,3.99,5.9C-235.19,401.74-237.83,403.52-240.56,403z"/>
	<g>
		<path d="M-250.19,414.48c-0.33,0.84-0.77,1.55-1.35,1.44c-1.21-0.23-0.55-3.64-0.44-4.21l0.23-1.2c-0.12,0.64-0.83,1.45-1.47,1.33
			l-0.1-0.02c-0.64-0.12-0.97-1.14-0.85-1.78c-0.12,0.64-0.83,1.45-1.47,1.33l-0.1-0.02c-0.56-0.11-0.85-1-0.85-1.56
			c-0.2,0.52-0.82,1.24-1.39,1.13l-0.1-0.02c-0.64-0.12-0.97-1.14-0.85-1.78c-0.12,0.64-0.83,1.45-1.47,1.33l-0.1-0.02
			c-0.64-0.12-0.97-1.14-0.85-1.78l-0.23,1.2c-0.11,0.57-0.77,3.97-1.97,3.74c-0.87-0.17-0.77-1.97-0.61-3.18
			c-0.5,1.18-0.91,2.59-1.23,4.25c-1.37,7.1-0.59,13.79,4.8,14.83c5.39,1.04,8.6-4.88,9.97-11.98
			C-250.38,416.42-250.25,415.42-250.19,414.48z"/>
	</g>
	<path d="M-248.57,402.1c-0.54,2.78-4.29,6.69-7.86,6.01c-3.57-0.69-5.6-5.72-5.07-8.5c0.54-2.78,3.44-2.26,7.01-1.57
		C-250.92,398.72-248.03,399.32-248.57,402.1z"/>
</g>
<text transform="matrix(1 9.090000e-03 -9.090000e-03 1 -323.8708 551.0338)" class="st2" style="font-size:150.7482px;">T </text>
<text transform="matrix(1 9.090000e-03 -9.090000e-03 1 -318.6012 538.0532)" class="st5 st2" style="font-size:165.1299px;">S</text>
<text transform="matrix(1 9.090000e-03 -9.090000e-03 1 -318.6012 538.0532)" class="st2" style="font-size:165.1299px;">S</text>
</svg>
